<svg width="177" height="166" viewBox="0 0 177 166" fill="none" xmlns="http://www.w3.org/2000/svg">
    <path d="M104.57 79.67V163.89" stroke="#2A272D" stroke-width="1.9882" stroke-miterlimit="10"/>
    <path d="M165.49 79.67V163.89" stroke="#2A272D" stroke-width="1.9882" stroke-miterlimit="10"/>
    <path d="M68.55 105.68C68.55 105.68 80.24 103.03 82 110.64C83.52 117.17 67.62 116.92 67.62 116.92L32.66 117.13C32.66 117.13 19.49 118.65 12.98 103.46C6.47001 88.27 0.200011 48.49 0.200011 48.49C0.200011 48.49 -0.73999 43.02 3.82001 42.22C9.18001 41.28 10.23 52.86 10.23 52.86C10.23 52.86 18.33 101.96 30.09 104.36C31.9 104.73 33.34 106.1 35.19 106.08L68.55 105.68Z" fill="#FFEEE3"/>
    <path d="M99.62 66.02L110.66 65.26C111.56 65.2 112.42 65.61 112.93 66.34L119.1 75.67L113.85 75.92L110.89 71.37C110.89 71.37 102.36 73.5 99.21 71.37L99.62 66.02Z" fill="#F2C09E"/>
    <path d="M55.15 35.79L69.9 63.2L100.55 64.18V74.26L68.18 75.68C63.9 75.87 59.84 73.82 57.44 70.27L42.71 43.82L55.15 35.79Z" fill="#EFC375"/>
    <path d="M100.55 64.17V74.25L97.13 74.4V64.06L100.55 64.17Z" fill="#F7E5DA"/>
    <path d="M84.49 145.42L86.22 157.54L94.94 157L93.69 144.49L84.49 145.42Z" fill="#FCC9A7"/>
    <path d="M84.27 156.31C84.46 155.74 85.14 155.51 85.63 155.86C86.59 156.54 88.28 157.35 90.71 157.04C93.24 156.72 94.13 155.37 94.44 154.42C94.6 153.92 95.14 153.65 95.63 153.84L111.35 160C112.31 160.37 113.07 161.11 113.48 162.05C113.86 162.93 113.23 163.92 112.26 163.94L85.64 164.33C84.59 164.35 83.75 163.48 83.79 162.43L83.98 157.29C83.98 157.2 84 157.12 84.03 157.04L84.27 156.31Z" fill="#1F252A"/>
    <path d="M58 33.44L60.5 37.45C60.66 37.83 60.73 38.75 60.04 39.09L59.07 39.79L56.99 36.61L58 33.44Z" fill="#FFEEE3"/>
    <path d="M53.34 37.68L52.55 37.3C49.95 36.03 48.87 32.89 50.14 30.29L58.58 13.01L67.95 17.59L58.2 36.94C57.16 39.09 55.49 38.73 53.34 37.68Z" fill="#FCC9A7"/>
    <path d="M74.94 21C72.19 26.62 65.4 28.96 59.78 26.21C54.16 23.46 51.82 16.68 54.57 11.05C57.32 5.43 64.1 3.09 69.73 5.84C75.36 8.59 77.69 15.38 74.94 21Z" fill="#FCC9A7"/>
    <path d="M61.26 32.18C58.59 30.88 57.48 27.65 58.79 24.98L63.55 15.23L75.03 20.84L71.15 28.79C69.35 32.45 64.92 33.98 61.26 32.18Z" fill="#FCC9A7"/>
    <path d="M73.54 23.13L74.16 27.49C74.21 28.18 73.48 28.63 72.84 28.32L70.02 27.55L73.54 23.13Z" fill="#FCC9A7"/>
    <path d="M63.6 20.95C63.6 20.95 67.57 21.21 68.22 15.08C68.22 15.08 75.12 19.48 77.93 17.73C77.93 17.73 78.79 0.389993 64.46 0.999993C50.13 1.60999 49.01 17.08 49.01 17.08L57.05 24.34L63.6 20.95Z" fill="#1C2226"/>
    <path d="M64.17 21.2C63.42 22.75 61.55 23.39 60 22.63C58.46 21.87 57.81 20.01 58.57 18.46C59.32 16.91 61.19 16.27 62.74 17.03C64.28 17.79 64.92 19.65 64.17 21.2Z" fill="#FCC9A7"/>
    <path d="M55.42 18.9L53.29 23.87C53.29 23.87 57.97 27.62 60.33 22.79L56.93 21.83L55.42 18.9Z" fill="#1C2226"/>
    <path d="M68.22 15.08C68.22 15.08 77.57 22.3 81.26 16.25C84.2 11.42 80.93 8.28999 76.21 9.06999C74.17 9.40999 73.16 8.02999 71.56 6.93999L68.22 15.08Z" fill="#1C2226"/>
    <path d="M59.82 42.21C59.82 42.21 59.61 37.8 58.21 36.27C56.81 34.74 49.35 30.52 49.35 30.52C49.35 30.52 38.62 33.63 32.03 45.89C26.9 55.44 22.07 79.61 22.07 79.61L53.03 84.1C55.7 66.04 60.7 57.81 59.82 42.21Z" fill="#FFD686"/>
    <path d="M49.87 29.67L48.58 30.25C48.12 30.46 48.02 31.08 48.4 31.42L56.58 38.7C56.91 39 57.43 38.91 57.66 38.53L58.58 36.94C58.75 36.64 58.68 36.26 58.41 36.04L50.59 29.78C50.39 29.6 50.11 29.56 49.87 29.67Z" fill="#FFEEE3"/>
    <path d="M96.21 67.66L107.25 66.9C108.15 66.84 109.01 67.25 109.52 67.98L115.18 76.03L109.89 76.71L107.48 73C107.48 73 98.95 75.13 95.8 73L96.21 67.66Z" fill="#FCC9A7"/>
    <path d="M48.88 37.83L65.54 65.94L97.14 66.81V75.9L63.04 77.39C59.84 77.53 56.79 76 54.99 73.34L36.44 45.86L48.88 37.83Z" fill="#FFD686"/>
    <path d="M97.14 66.81V75.89L93.72 76.04V66.81H97.14Z" fill="#FFEEE3"/>
    <path d="M22.07 79.61L82.97 88.44C87.63 89.12 91.23 92.89 91.68 97.58L96.22 149.45L82.62 150.33L76.08 105.37L37.84 106.36C27.46 106.36 19.5 97.14 21.01 86.87L22.07 79.61Z" fill="#54585A"/>
    <path d="M130.01 75.68H97.89V77.76H130.01V75.68Z" fill="#2A272D"/>
    <path d="M130.02 77.76L140.41 47.41L138.23 46.89L128.04 76.04L130.02 77.76Z" fill="#2A272D"/>
    <path d="M60.75 31.9C60.75 31.9 57.86 30.19 57.86 26.59C57.86 26.59 56.06 30.49 59.73 33.92L60.75 31.9Z" fill="#F2C09E"/>
    <path d="M13.34 165.85C13.82 165.85 14.26 165.52 14.39 165.03L30.29 102.34C31.61 97.15 36.26 93.52 41.62 93.52C46.82 93.52 51.44 97.01 52.86 102.01C58.42 121.6 71.36 164.34 71.49 164.77C71.66 165.34 72.27 165.67 72.84 165.49C73.41 165.32 73.74 164.71 73.56 164.14C73.43 163.71 60.49 120.99 54.94 101.42C53.26 95.49 47.78 91.35 41.61 91.35C35.26 91.35 29.74 95.65 28.18 101.8L12.28 164.5C12.13 165.08 12.48 165.67 13.06 165.82C13.16 165.84 13.25 165.85 13.34 165.85Z" fill="#1F252A"/>
    <path d="M55 73.33L45.45 59.2" stroke="#EFC375" stroke-width="0.7847" stroke-miterlimit="10" stroke-linecap="round" stroke-linejoin="round"/>
    <path d="M176.01 77.76H92.8V81.51H176.01V77.76Z" fill="#FFEEE3"/>
    <path d="M104.57 90.62H165.49" stroke="#2A272D" stroke-width="1.9882" stroke-miterlimit="10"/>
    <path d="M60.6 56.91L51.45 42.16" stroke="#EFC375" stroke-width="0.7847" stroke-miterlimit="10" stroke-linecap="round" stroke-linejoin="round"/>
</svg>