<svg width="91" height="91" viewBox="0 0 91 91" fill="none" xmlns="http://www.w3.org/2000/svg">
    <g clip-path="url(#clip0_19_36)">
    <path d="M72.1029 0.140137H19.2266C9.15118 0.140137 0.983398 8.30792 0.983398 18.3834V71.2596C0.983398 81.3351 9.15118 89.5028 19.2266 89.5028H72.1029C82.1784 89.5028 90.3461 81.3351 90.3461 71.2596V18.3834C90.3461 8.30792 82.1784 0.140137 72.1029 0.140137Z" fill="none"/>
    <path d="M44.2064 29.877C44.2576 29.1417 44.3184 28.5064 44.3875 27.9799C44.5948 28.3045 44.8769 28.7275 45.1255 28.975L45.1291 28.9786C45.7607 29.6023 46.4733 30.5577 47.1539 31.4703C47.3934 31.7915 47.6289 32.1073 47.8555 32.4015C49.6263 34.7274 50.8351 37.3272 51.7078 40.1833C52.2188 41.8885 52.4945 43.6315 52.5152 45.3891L52.5153 45.3945C52.6009 50.6803 50.8029 55.1869 47.1505 58.9604C46.678 59.4356 46.1747 59.879 45.6443 60.2879C45.513 60.2632 45.3686 60.2316 45.2289 60.1955C45.1241 60.1685 45.0324 60.1417 44.957 60.117C44.8196 59.8199 44.725 59.5042 44.6764 59.1795L44.6719 59.1494L44.666 59.1196C44.5393 58.4886 44.4709 57.9269 44.5056 57.3763L44.508 57.3381V57.2999V56.9831V56.716L44.4916 56.6805C44.4894 56.6391 44.487 56.5921 44.4844 56.5393C44.4721 56.297 44.4553 55.9419 44.4354 55.4901C44.3954 54.5867 44.3425 53.3003 44.2875 51.7636C44.1776 48.6893 44.0592 44.6187 44.0177 40.6099C43.9762 36.5925 44.0121 32.6696 44.2064 29.877Z" stroke="white" stroke-width="2"/>
    <path d="M44.5429 27.6007C44.9316 27.053 44.8025 26.2938 44.2546 25.9051C43.7068 25.5165 42.9477 25.6456 42.559 26.1933L44.5429 27.6007ZM42.7567 27.7917L43.5527 28.7112L43.5574 28.7071L42.7567 27.7917ZM37.8919 33.9925L36.8212 33.4155L36.8186 33.4206L37.8919 33.9925ZM35.0875 44.1297L36.2991 44.2359L36.3001 44.2247L36.3008 44.2135L35.0875 44.1297ZM35.9015 51.281L34.7397 51.6406L34.7426 51.6497L35.9015 51.281ZM41.5817 60.2199L40.7293 61.0876L40.7381 61.0958L41.5817 60.2199ZM44.2906 61.5425L43.5451 62.5034L43.8742 62.7588H44.2906V61.5425ZM44.5633 61.2257L45.7126 61.6235L45.7192 61.6045L45.7252 61.5851L44.5633 61.2257ZM44.7671 60.3429L45.969 60.5292L45.9872 60.4112L45.9823 60.2919L44.7671 60.3429ZM45.7784 55.427C45.7503 54.7559 45.1834 54.2348 44.5123 54.2629C43.8412 54.291 43.3201 54.8579 43.3482 55.529L45.7784 55.427ZM42.559 26.1933C42.3266 26.521 42.2291 26.6373 41.9561 26.8761L43.5574 28.7071C44.0087 28.3124 44.2301 28.0417 44.5429 27.6007L42.559 26.1933ZM41.9606 26.8721C39.8181 28.7271 38.147 30.9552 36.8212 33.4155L38.9625 34.5694C40.1736 32.322 41.6704 30.3409 43.5527 28.7112L41.9606 26.8721ZM36.8186 33.4206C35.0396 36.7595 34.131 40.325 33.8742 44.0461L36.3008 44.2135C36.5374 40.7859 37.3685 37.5612 38.9653 34.5643L36.8186 33.4206ZM33.8759 44.0236C33.8071 44.81 33.9266 46.3902 34.0914 47.8345C34.257 49.2859 34.498 50.8602 34.7397 51.6406L37.0634 50.9212C36.8986 50.3891 36.6763 49.0324 36.5082 47.5587C36.3392 46.0778 36.2551 44.7388 36.2991 44.2359L33.8759 44.0236ZM34.7426 51.6497C35.9226 55.3581 38.037 58.4427 40.7293 61.0876L42.4341 59.3523C39.9669 56.9286 38.0981 54.1731 37.0606 50.9122L34.7426 51.6497ZM40.7381 61.0958C41.2738 61.6119 42.0397 61.8826 42.4937 62.0485C43.0884 62.2656 43.3817 62.3768 43.5451 62.5034L45.0363 60.5816C44.4985 60.1643 43.7542 59.9191 43.328 59.7636C42.7614 59.5567 42.5232 59.4381 42.4254 59.3439L40.7381 61.0958ZM44.2906 62.7588C44.53 62.7588 44.7955 62.7028 45.045 62.5509C45.2894 62.4022 45.4414 62.2083 45.5329 62.0537C45.6187 61.9085 45.6646 61.7741 45.6851 61.7115C45.696 61.6788 45.7059 61.6457 45.7095 61.634C45.7151 61.616 45.7147 61.6173 45.7126 61.6235L43.414 60.8279C43.4001 60.8678 43.389 60.9044 43.3836 60.9223C43.3799 60.934 43.3785 60.9389 43.3764 60.9454C43.3757 60.9479 43.3751 60.9498 43.3747 60.9511C43.3752 60.9498 43.376 60.9471 43.3771 60.9443C43.3791 60.9388 43.3824 60.9302 43.387 60.919C43.3959 60.8975 43.4124 60.8607 43.4389 60.8159C43.4935 60.7235 43.5988 60.5836 43.7803 60.4731C43.967 60.3595 44.1532 60.3263 44.2906 60.3263V62.7588ZM45.7252 61.5851C45.8321 61.2396 45.9135 60.8866 45.969 60.5292L43.5653 60.1565C43.5281 60.3968 43.4732 60.634 43.4015 60.8663L45.7252 61.5851ZM45.9823 60.2919L45.7784 55.427L43.3482 55.529L43.552 60.3938L45.9823 60.2919Z" fill="white"/>
    <path d="M45.3815 62.9333C45.427 62.414 45.6763 61.983 45.9476 61.5532C45.6749 61.4403 45.4724 61.2157 45.314 60.965C45.1774 60.7279 45.0644 60.4778 44.9765 60.2185C44.6596 59.2682 44.5921 58.2711 44.5013 57.3V56.7118C44.3883 56.8028 44.365 57.5713 44.365 57.6855C44.2988 58.712 44.1626 59.7326 43.9573 60.7405C43.8898 61.1482 43.8443 61.5545 43.5938 61.9167C43.5938 61.9622 43.5938 62.0076 43.6158 62.0752C44.0234 63.2747 44.1351 64.4964 44.2039 65.7416V66.196C44.2039 66.7386 44.1818 66.6244 44.6324 66.8061C44.8141 66.8736 45.0167 66.897 45.1984 67.0321C45.3348 67.0321 45.3568 66.9191 45.3568 66.8283L45.2893 66.0818V63.9992C45.2673 63.6357 45.3348 63.2747 45.3803 62.9346L45.3815 62.9333Z" fill="white"/>
    </g>
    <defs>
    <linearGradient id="paint0_linear_19_36" x1="-5.45039" y1="-2.71919" x2="90.3461" y2="89.5028" gradientUnits="userSpaceOnUse">
    <stop stop-color="#3CD89D"/>
    <stop offset="1" stop-color="#82C444"/>
    </linearGradient>
    <clipPath id="clip0_19_36">
    <rect width="90" height="90" fill="white" transform="translate(0.983398 0.140137)"/>
    </clipPath>
    </defs>
</svg>