<svg width="91" height="91" viewBox="0 0 91 91" fill="none" xmlns="http://www.w3.org/2000/svg">
    <g clip-path="url(#clip0_19_26)">
    <path d="M73.1069 0.140137H17.7982C8.39449 0.140137 0.77124 7.76339 0.77124 17.1672V72.4758C0.77124 81.8796 8.39449 89.5028 17.7982 89.5028H73.1069C82.5106 89.5028 90.1339 81.8796 90.1339 72.4758V17.1672C90.1339 7.76339 82.5106 0.140137 73.1069 0.140137Z" fill="none"/>
    <path d="M44.8495 60.9509C44.6676 60.9511 44.4887 60.9043 44.3312 60.8152L42.6808 59.8576C42.4333 59.7231 42.5569 59.6758 42.6361 59.648C42.8965 59.5668 43.1458 59.455 43.3785 59.3146C43.3982 59.3055 43.42 59.3015 43.4417 59.3032C43.4634 59.3049 43.4843 59.3122 43.5022 59.3243L44.7691 60.0612C44.7925 60.0738 44.8186 60.0803 44.8451 60.0803C44.8718 60.0803 44.8979 60.0738 44.9213 60.0612L49.8638 57.2664C49.8871 57.2529 49.9063 57.2338 49.9196 57.2108C49.9327 57.1878 49.9396 57.1618 49.9394 57.1354V51.548C49.9395 51.5211 49.9326 51.4946 49.9191 51.4712C49.9057 51.4479 49.8861 51.4283 49.8626 51.4145L44.9225 48.6269C44.8994 48.6138 44.8731 48.6069 44.8465 48.6069C44.8197 48.6069 44.7934 48.6138 44.7703 48.6269L39.8314 51.4145C39.8077 51.4279 39.7877 51.4471 39.7739 51.4703C39.76 51.4935 39.7526 51.5199 39.7522 51.5468V57.1342C39.7525 57.1607 39.7598 57.1865 39.7735 57.2093C39.7871 57.2321 39.8067 57.2509 39.8302 57.2639L41.1849 58.0299C41.9199 58.3936 42.3689 57.9669 42.3689 57.5451V52.0242C42.3689 52.0059 42.3727 51.9876 42.3799 51.9706C42.3872 51.9536 42.3977 51.9382 42.411 51.9252C42.4244 51.9123 42.4402 51.902 42.4576 51.8951C42.4751 51.8881 42.4937 51.8847 42.5124 51.8849H43.1398C43.1776 51.8849 43.2138 51.8995 43.2407 51.9256C43.2676 51.9518 43.2829 51.9871 43.2833 52.0242V57.5415C43.2833 58.5025 42.7487 59.0529 41.8197 59.0529C41.5339 59.0529 41.3086 59.0529 40.6802 58.7499L39.3848 58.0226C39.2269 57.9327 39.096 57.8038 39.005 57.6488C38.914 57.4937 38.8662 57.3179 38.8665 57.139V51.5515C38.8663 51.3728 38.9141 51.1973 39.0051 51.0424C39.0961 50.8876 39.2271 50.7589 39.3848 50.6691L44.3336 47.8706C44.4928 47.7852 44.6712 47.7406 44.8526 47.7406C45.034 47.7406 45.2124 47.7852 45.3716 47.8706L50.3204 50.6691C50.4783 50.7588 50.6094 50.8874 50.7006 51.0423C50.7918 51.1972 50.8399 51.3727 50.84 51.5515V57.139C50.8399 57.3179 50.7918 57.4938 50.7006 57.6488C50.6094 57.8038 50.4783 57.9327 50.3204 58.0226L45.3716 60.8188C45.2127 60.9075 45.0324 60.9531 44.8495 60.9509Z" fill="white"/>
    <path d="M46.3771 57.1004C44.2144 57.1004 43.7604 56.1307 43.7604 55.3126C43.7604 55.2942 43.7641 55.276 43.7713 55.259C43.7786 55.242 43.7892 55.2266 43.8025 55.2136C43.8158 55.2007 43.8316 55.1905 43.849 55.1835C43.8666 55.1766 43.8852 55.1731 43.9039 55.1732H44.5423C44.5771 55.173 44.6106 55.1851 44.6369 55.2074C44.6631 55.2298 44.6801 55.2607 44.6846 55.2945C44.7811 55.9308 45.0694 56.2532 46.3771 56.2532C47.4175 56.2532 47.8617 56.0216 47.8617 55.4812C47.8617 55.1696 47.738 54.9369 46.1173 54.7817C44.765 54.6508 43.9287 54.3587 43.9287 53.2982C43.9287 52.3213 44.7687 51.7395 46.1791 51.7395C47.7615 51.7395 48.5458 52.2776 48.6448 53.4363C48.6464 53.4557 48.6438 53.4751 48.6374 53.4935C48.631 53.5117 48.6207 53.5286 48.6075 53.5429C48.5941 53.5572 48.5779 53.5687 48.5599 53.5767C48.5418 53.5846 48.5223 53.5888 48.5025 53.5891H47.8617C47.8292 53.5887 47.798 53.5777 47.7728 53.5576C47.7476 53.5376 47.7301 53.5098 47.7232 53.4788C47.5697 52.8085 47.1948 52.594 46.1804 52.594C45.0434 52.594 44.911 52.9818 44.911 53.2727C44.911 53.6255 45.0668 53.7272 46.6022 53.9273C48.1375 54.1273 48.8416 54.4024 48.8416 55.4471C48.8416 56.492 47.9421 57.1004 46.3771 57.1004ZM53.5028 51.2401C53.5028 51.4247 53.4469 51.6052 53.3422 51.7587C53.2376 51.912 53.0888 52.0317 52.9147 52.1024C52.7407 52.173 52.5491 52.1915 52.3643 52.1554C52.1795 52.1194 52.0097 52.0306 51.8765 51.9C51.7433 51.7695 51.6525 51.6032 51.6158 51.4222C51.5791 51.2412 51.5979 51.0535 51.67 50.883C51.7422 50.7125 51.8643 50.5667 52.0209 50.4641C52.1776 50.3616 52.3617 50.3069 52.5502 50.3069C52.8026 50.3075 53.0445 50.406 53.223 50.5809C53.4016 50.7558 53.5021 50.9928 53.5028 51.2401ZM51.7521 51.2401C51.7514 51.3953 51.7977 51.5472 51.8853 51.6765C51.9729 51.8057 52.0977 51.9067 52.2438 51.9664C52.39 52.0261 52.5511 52.0419 52.7064 52.0119C52.8618 51.9817 53.0045 51.9072 53.1165 51.7974C53.2285 51.6877 53.3048 51.5478 53.3354 51.3956C53.3662 51.2434 53.35 51.0856 53.2891 50.9425C53.2281 50.7992 53.1251 50.677 52.9932 50.5912C52.8611 50.5055 52.706 50.46 52.5477 50.4607C52.3374 50.4617 52.136 50.5438 51.9871 50.6893C51.8382 50.8347 51.7538 51.0318 51.7521 51.2377V51.2401ZM52.1926 50.7189H52.5637C52.6875 50.7189 52.9349 50.7189 52.9349 50.9965C52.9393 51.056 52.9212 51.1149 52.8839 51.1621C52.8467 51.2093 52.7931 51.2414 52.7333 51.2523C52.8792 51.2632 52.8892 51.3565 52.9102 51.4946C52.9154 51.5888 52.9337 51.6817 52.9646 51.771H52.737C52.737 51.7213 52.6962 51.4546 52.6962 51.4402C52.6825 51.3807 52.6615 51.3516 52.5861 51.3516H52.3992V51.771H52.1926V50.7189ZM52.3943 51.1783H52.5637C52.5846 51.1809 52.6058 51.1788 52.6259 51.1725C52.6459 51.166 52.6642 51.1554 52.6795 51.1413C52.6949 51.1272 52.7069 51.11 52.7146 51.0907C52.7224 51.0716 52.7258 51.051 52.7246 51.0304C52.7246 50.8874 52.6232 50.8874 52.5687 50.8874H52.3967L52.3943 51.1783Z" fill="white"/>
    <path fill-rule="evenodd" clip-rule="evenodd" d="M29.5442 39.0882C29.5444 38.9789 29.5152 38.8716 29.4597 38.7768C29.4041 38.6822 29.3239 38.6035 29.2275 38.5488L23.9843 35.5951C23.8966 35.5448 23.7974 35.5169 23.696 35.5139H23.6415C23.5401 35.5174 23.4411 35.5452 23.3533 35.5951L18.115 38.5488C18.0186 38.6037 17.9387 38.6825 17.8831 38.7771C17.8275 38.8717 17.7983 38.979 17.7982 39.0882L17.8094 47.044C17.809 47.0982 17.8235 47.1516 17.8514 47.1985C17.8792 47.2455 17.9194 47.2842 17.9678 47.3107C18.0149 47.3391 18.0694 47.3543 18.1249 47.3543C18.1804 47.3543 18.2347 47.3391 18.282 47.3107L21.396 45.5665C21.4922 45.5116 21.572 45.4332 21.6276 45.3388C21.6832 45.2443 21.7125 45.1373 21.7127 45.0283V41.3099C21.7125 41.2009 21.7416 41.0939 21.7973 40.9995C21.8528 40.9052 21.933 40.827 22.0294 40.7729L23.3557 40.0251C23.4517 39.9697 23.5611 39.9409 23.6724 39.9414C23.7831 39.9406 23.8917 39.9696 23.9867 40.0251L25.313 40.7729C25.4092 40.8273 25.4891 40.9056 25.5447 40.9998C25.6002 41.0941 25.6296 41.201 25.6297 41.3099V45.0259C25.6297 45.1354 25.6589 45.2427 25.7144 45.3376C25.77 45.4325 25.8499 45.5114 25.9464 45.5665L29.0567 47.3107C29.1042 47.3391 29.1588 47.3542 29.2145 47.3542C29.2702 47.3542 29.3248 47.3391 29.3722 47.3107C29.42 47.2837 29.4598 47.2449 29.4874 47.1981C29.515 47.1512 29.5295 47.0981 29.5294 47.044L29.5442 39.0882ZM54.7572 28.1519C54.7089 28.1257 54.6546 28.1123 54.5995 28.1131C54.5444 28.1138 54.4904 28.1286 54.4429 28.156C54.3954 28.1835 54.3561 28.2225 54.3287 28.2695C54.3014 28.3163 54.287 28.3694 54.287 28.4234V36.3016C54.287 36.3398 54.2768 36.3774 54.2573 36.4105C54.2379 36.4434 54.2099 36.4709 54.1761 36.49C54.1424 36.509 54.1041 36.5191 54.0651 36.5189C54.0261 36.5188 53.9878 36.5087 53.9543 36.4895L52.6428 35.749C52.5465 35.6945 52.4373 35.6659 52.3261 35.6659C52.2148 35.6659 52.1056 35.6945 52.0093 35.749L46.7674 38.7124C46.6712 38.7669 46.5913 38.8452 46.5358 38.9395C46.4802 39.0337 46.4508 39.1405 46.4506 39.2494V45.1786C46.4508 45.2875 46.4802 45.3943 46.5358 45.4885C46.5913 45.5828 46.6712 45.6611 46.7674 45.7156L52.0093 48.6815C52.1055 48.7363 52.2148 48.7651 52.3261 48.7651C52.4373 48.7651 52.5466 48.7363 52.6428 48.6815L57.8835 45.7156C57.9796 45.661 58.0592 45.5827 58.1146 45.4884C58.1699 45.3942 58.1991 45.2874 58.199 45.1786V30.3991C58.1998 30.2895 58.171 30.1817 58.1157 30.0866C58.0602 29.9914 57.9802 29.9123 57.8835 29.8572L54.7572 28.1519ZM54.271 43.2309C54.271 43.258 54.2637 43.2846 54.2498 43.3081C54.2358 43.3315 54.2159 43.3509 54.1918 43.3642L52.3929 44.3812C52.3688 44.3949 52.3416 44.4021 52.3137 44.4021C52.2859 44.4021 52.2585 44.3949 52.2345 44.3812L50.4344 43.3642C50.4103 43.3509 50.3903 43.3315 50.3764 43.3081C50.3624 43.2846 50.3551 43.258 50.3552 43.2309V41.1947C50.355 41.1674 50.3623 41.1406 50.3761 41.1169C50.3901 41.0933 50.4102 41.0737 50.4344 41.0602L52.2345 40.0421C52.2585 40.0283 52.2859 40.021 52.3137 40.021C52.3416 40.021 52.3688 40.0283 52.3929 40.0421L54.1918 41.0602C54.216 41.0737 54.2361 41.0933 54.2499 41.1169C54.2638 41.1406 54.2711 41.1674 54.271 41.1947V43.2309ZM72.2138 41.1414C72.3095 41.0866 72.3888 41.0081 72.4439 40.9139C72.4991 40.8197 72.5281 40.7131 72.5281 40.6045V39.1681C72.5281 39.0596 72.499 38.953 72.4435 38.8588C72.3882 38.7648 72.3085 38.6867 72.2126 38.6325L67.0039 35.6689C66.9077 35.6146 66.7985 35.5859 66.6872 35.5859C66.576 35.5859 66.4668 35.6146 66.3705 35.6689L61.1297 38.6325C61.0335 38.6868 60.9536 38.7652 60.898 38.8593C60.8424 38.9536 60.8131 39.0605 60.813 39.1693V45.0963C60.813 45.2059 60.8427 45.3135 60.899 45.4083C60.9553 45.503 61.0362 45.5815 61.1335 45.6356L66.3408 48.5445C66.4352 48.5966 66.5417 48.6238 66.6501 48.6238C66.7585 48.6238 66.865 48.5966 66.9594 48.5445L70.1093 46.8294C70.1579 46.8022 70.1983 46.7629 70.2264 46.7153C70.2545 46.6679 70.2692 46.614 70.2692 46.5592C70.2692 46.5043 70.2545 46.4504 70.2264 46.403C70.1983 46.3556 70.1579 46.3162 70.1093 46.2889L64.8351 43.3243C64.787 43.2969 64.7471 43.2576 64.7192 43.2104C64.6915 43.1633 64.6768 43.1096 64.6768 43.0551V41.2032C64.6768 41.1488 64.6915 41.0954 64.7192 41.0484C64.7471 41.0014 64.787 40.9624 64.8351 40.9353L66.4819 40.0033C66.5299 39.9759 66.5845 39.9614 66.6402 39.9614C66.6958 39.9614 66.7504 39.9759 66.7986 40.0033L68.4404 40.9304C68.4884 40.9575 68.5284 40.9966 68.5561 41.0435C68.584 41.0906 68.5987 41.144 68.5987 41.1983V42.6577C68.5985 42.7122 68.6129 42.7658 68.6408 42.8131C68.6685 42.8603 68.7085 42.8996 68.7568 42.9267C68.8051 42.9539 68.8598 42.9682 68.9154 42.9679C68.9711 42.9677 69.0257 42.9531 69.0738 42.9255L72.2138 41.1414Z" fill="white"/>
    <path fill-rule="evenodd" clip-rule="evenodd" d="M66.6107 40.8638C66.6295 40.8532 66.6508 40.8476 66.6726 40.8476C66.6942 40.8476 66.7156 40.8532 66.7344 40.8638L67.7403 41.4323C67.7585 41.443 67.7738 41.4579 67.7843 41.4761C67.795 41.4941 67.8006 41.5145 67.8009 41.5353V42.6734C67.8006 42.6942 67.795 42.7147 67.7843 42.7328C67.7738 42.7508 67.7585 42.7659 67.7403 42.7764L66.7344 43.3449C66.7156 43.3556 66.6942 43.3612 66.6726 43.3612C66.6508 43.3612 66.6295 43.3556 66.6107 43.3449L65.6049 42.7789C65.5866 42.7683 65.5714 42.7532 65.5607 42.7352C65.5501 42.7171 65.5444 42.6967 65.5443 42.6759V41.5377C65.5444 41.5169 65.5501 41.4965 65.5607 41.4785C65.5714 41.4604 65.5866 41.4453 65.6049 41.4347L66.6107 40.8638ZM38.3127 35.6993C38.2173 35.6452 38.1089 35.6167 37.9986 35.6167C37.8882 35.6167 37.7798 35.6452 37.6843 35.6993L32.4708 38.6458C32.3752 38.7002 32.2959 38.7781 32.2407 38.8719C32.1856 38.9657 32.1565 39.0721 32.1565 39.1803V45.0818C32.1565 45.19 32.1856 45.2963 32.2407 45.3901C32.2959 45.484 32.3752 45.5619 32.4708 45.6162L37.6831 48.5651C37.7789 48.6194 37.8878 48.648 37.9986 48.648C38.1093 48.648 38.2181 48.6194 38.314 48.5651L43.5251 45.6162C43.6207 45.5619 43.7 45.484 43.7551 45.3901C43.8103 45.2963 43.8393 45.19 43.8393 45.0818V39.1803C43.8393 39.0721 43.8103 38.9657 43.7551 38.8719C43.7 38.7781 43.6207 38.7002 43.5251 38.6458L38.3127 35.6993Z" fill="white"/>
    <path d="M43.532 38.6458L38.3072 35.6992C38.2559 35.6708 38.201 35.6493 38.1439 35.635L32.2734 45.4719C32.324 45.5279 32.3834 45.5758 32.4491 45.6137L37.6849 48.5627C37.758 48.6035 37.8385 48.6298 37.9219 48.6399C38.0055 48.6501 38.0901 48.644 38.1711 48.622L43.6729 38.7524C43.6313 38.7105 43.5838 38.6746 43.532 38.6458ZM37.5094 34.6157L37.4376 34.6556H37.5328L37.5094 34.6157Z" fill="white"/>
    <path d="M43.5377 45.6136C43.6891 45.5275 43.7998 45.3864 43.8457 45.221L38.1151 35.6276C37.9638 35.5973 37.8064 35.6219 37.6721 35.6967L32.476 38.6262L38.0878 48.639C38.1688 48.6279 38.2469 48.602 38.3179 48.5626L43.5377 45.6136ZM44.0231 45.5181L43.9884 45.4611V45.5375L44.0231 45.5181Z" fill="white"/>
    <path d="M43.5384 45.6139L38.3198 48.5627C38.2487 48.6021 38.1707 48.628 38.0897 48.6391L38.1937 48.8246L43.9887 45.5375V45.4611L43.8464 45.2188C43.8011 45.3851 43.6903 45.5272 43.5384 45.6139Z" fill="white"/>
    <path d="M43.5384 45.6139L38.3198 48.5627C38.2487 48.6021 38.1707 48.628 38.0897 48.6391L38.1937 48.8246L43.9887 45.5375V45.4611L43.8464 45.2188C43.8011 45.3851 43.6903 45.5272 43.5384 45.6139Z" fill="white"/>
    </g>
    <defs>
    <linearGradient id="paint0_linear_19_26" x1="-5.66272" y1="-2.71919" x2="90.1338" y2="89.5028" gradientUnits="userSpaceOnUse">
    <stop stop-color="#3CD89D"/>
    <stop offset="1" stop-color="#82C444"/>
    </linearGradient>
    <clipPath id="clip0_19_26">
    <rect width="90" height="90" fill="white" transform="translate(0.322266 0.140137)"/>
    </clipPath>
    </defs>
</svg>
