<svg width="90" height="91" viewBox="0 0 90 91" fill="none" xmlns="http://www.w3.org/2000/svg">
    <g clip-path="url(#clip0_19_41)">
    <path d="M71.1195 0.520508H18.2432C8.16778 0.520508 0 8.68829 0 18.7638V71.64C0 81.7155 8.16778 89.8832 18.2432 89.8832H71.1195C81.195 89.8832 89.3627 81.7155 89.3627 71.64V18.7638C89.3627 8.68829 81.195 0.520508 71.1195 0.520508Z" fill="none"/>
    <path d="M44.1996 48.4638C46.2633 48.4638 47.9362 46.7909 47.9362 44.7272C47.9362 42.6635 46.2633 40.9906 44.1996 40.9906C42.1359 40.9906 40.4629 42.6635 40.4629 44.7272C40.4629 46.7909 42.1359 48.4638 44.1996 48.4638Z" fill="white"/>
    <path d="M44.1989 37.1306C49.2148 37.1306 53.8751 37.8505 57.3881 39.0594C61.6212 40.5164 64.2242 42.7256 64.2242 44.726C64.2242 46.8105 61.4656 49.1579 56.9201 50.6631C53.4836 51.8017 48.9604 52.3968 44.1989 52.3968C39.3164 52.3968 34.6944 51.8387 31.2183 50.6508C26.821 49.148 24.1723 46.771 24.1723 44.726C24.1723 42.7416 26.658 40.5499 30.8318 39.0952C34.3585 37.8665 39.1336 37.1306 44.1989 37.1306Z" stroke="white" stroke-width="2" stroke-miterlimit="10"/>
    <path d="M37.5861 40.9509C40.0916 36.6055 43.0441 32.9281 45.8471 30.4894C49.2244 27.5505 52.4388 26.3996 54.1711 27.3986C55.9765 28.4396 56.6322 32.0021 55.6654 36.6932C54.9343 40.2397 53.1907 44.4541 50.8112 48.5797C48.3723 52.809 45.5792 56.5345 42.8144 58.9524C39.3162 62.011 35.9326 63.1174 34.1618 62.0963C32.443 61.1047 31.7861 57.857 32.6097 53.5142C33.3061 49.8417 35.0547 45.3383 37.5861 40.9509Z" stroke="white" stroke-width="2" stroke-miterlimit="10"/>
    <path d="M37.5926 48.5884C35.0797 44.2468 33.3682 39.8532 32.6544 36.2068C31.795 31.8132 32.4025 28.4533 34.1338 27.4518C35.9379 26.4071 39.351 27.6184 42.932 30.7982C45.6401 33.2025 48.4196 36.818 50.8053 40.9399C53.2515 45.1655 55.0853 49.4455 55.7978 53.0475C56.7005 57.6064 55.9694 61.0899 54.1999 62.1136C52.4823 63.1076 49.3408 62.0556 45.9895 59.1723C43.1592 56.7359 40.1301 52.9722 37.5926 48.5884Z" stroke="white" stroke-width="2" stroke-miterlimit="10"/>
    </g>
    <defs>
    <linearGradient id="paint0_linear_19_41" x1="-6.43379" y1="-2.33882" x2="89.3627" y2="89.8832" gradientUnits="userSpaceOnUse">
    <stop stop-color="#3CD89D"/>
    <stop offset="1" stop-color="#82C444"/>
    </linearGradient>
    <clipPath id="clip0_19_41">
    <rect width="90" height="90" fill="white" transform="translate(0 0.520508)"/>
    </clipPath>
    </defs>
</svg>